<?xml version="1.0" encoding="UTF-8"?>
<svg version="1.1" viewBox="0 0 1600 1440" width="1280" height="1280" xmlns="http://www.w3.org/2000/svg">
<path transform="translate(0)" d="m0 0h1600v1440h-1600v-1440z" fill="#FCFDFF"/>
<path transform="translate(773 108)" d="m0 0c2.48 1.66 4.99 3.27 7.5 4.88 9.23 5.91 18.3 11.9 26.9 18.7 0.744 0.579 1.49 1.16 2.25 1.75 9.49 7.76 16.1 18.4 17.6 30.6 0.991 19.2-9.72 34.5-20.6 49.4-8.76 11.9-17 24.2-25.1 36.6-1.27 1.94-2.54 3.87-3.81 5.81-1.84 2.8-3.67 5.59-5.5 8.39-6.07 9.27-12.2 18.5-18.5 27.6-7.2 10.5-14.2 21.1-21.2 31.6-4.96 7.47-9.98 14.9-15.1 22.3-3.41 4.94-6.75 9.92-10.1 14.9-3.55 5.35-7.14 10.7-10.7 16-0.593 0.878-1.19 1.76-1.8 2.66-1.23 1.82-2.45 3.63-3.68 5.45-8.61 12.7-17.2 25.5-25.7 38.3-5.33 8.03-10.8 16-16.3 23.8-4.35 6.18-8.57 12.4-12.7 18.7-1.89 2.86-3.79 5.71-5.69 8.56-0.504 0.758-1.01 1.52-1.53 2.3-3.82 5.73-7.7 11.4-11.6 17.1-3.96 5.76-7.82 11.6-11.5 17.5-2.28 3.55-4.7 7.01-7.12 10.5-2.88 4.13-5.69 8.3-8.48 12.5-0.418 0.629-0.837 1.26-1.27 1.91-1.67 2.51-3.33 5.02-5 7.54-5.64 8.5-11.3 16.9-17.1 25.3-2.92 4.26-5.82 8.53-8.68 12.8-3.81 5.74-7.7 11.4-11.6 17.1-4.65 6.79-9.28 13.6-13.9 20.4-5.2 7.65-10.4 15.3-15.6 22.9-0.496 0.726-0.991 1.45-1.5 2.2-2.49 3.64-5 7.26-7.54 10.9-4.58 6.54-9.04 13.2-13.5 19.8-0.983 1.47-1.97 2.93-2.96 4.39-9.58 12.3-9.58 12.3-14.4 26.3 9.38-7.49 17.4-16.7 25.3-25.8 3.57-4.08 7.31-7.94 11.1-11.8 0.681-0.682 1.36-1.36 2.06-2.07 1.43-1.43 2.86-2.86 4.29-4.29 2.17-2.17 4.34-4.34 6.5-6.51 1.4-1.4 2.8-2.8 4.2-4.2 0.955-0.958 0.955-0.958 1.93-1.94 2.98-2.97 6-5.84 9.2-8.56 5.09-4.43 9.82-9.2 14.6-14 0.996-0.998 1.99-2 2.99-2.99 2.13-2.13 4.26-4.27 6.39-6.41 3.37-3.38 6.74-6.76 10.1-10.1 7.16-7.17 14.3-14.3 21.5-21.5 7.73-7.75 15.5-15.5 23.2-23.2 3.35-3.35 6.7-6.71 10-10.1 2.08-2.09 4.17-4.18 6.25-6.27 1.42-1.42 2.84-2.85 4.25-4.27 4.23-4.23 8.5-8.23 13.1-12 1.21-1.47 2.43-2.94 3.62-4.43 1.52-1.73 3.15-3.15 4.91-4.64 5.14-4.44 9.88-9.24 14.7-14.1 1.31-1.32 1.31-1.32 2.65-2.67 1.67-1.68 3.35-3.37 5.02-5.05 2.37-2.39 4.75-4.77 7.14-7.16 1.67-1.67 3.33-3.33 5-5 0.961-0.961 1.92-1.92 2.88-2.88 0.513-0.513 1.03-1.03 1.55-1.55 24.3-24.3 48.6-48.6 73-73 0.622-0.622 1.24-1.24 1.88-1.88 1.41-1.4 2.81-2.81 4.22-4.21 2.01-2.01 4.01-4.03 6.02-6.05 1.28-1.29 2.57-2.59 3.85-3.88 0.634-0.643 1.27-1.29 1.92-1.95 3.61-3.62 7.3-7.03 11.2-10.3 1.73-1.51 3.19-3.12 4.61-4.92 2.38-2.88 4.9-5.09 7.88-7.38 1.68-1.65 3.34-3.32 5-5 1.22-1.22 2.44-2.45 3.66-3.67 1.44-1.44 2.87-2.88 4.31-4.32 8.03-8.05 16.1-16.1 24.1-24.1 4.86-4.86 9.71-9.72 14.6-14.6 4.7-4.72 9.41-9.43 14.1-14.1 1.79-1.79 3.58-3.58 5.36-5.38 2.51-2.51 5.01-5.02 7.52-7.53 0.73-0.734 1.46-1.47 2.21-2.22 4.03-4.02 8.15-7.86 12.5-11.6 1.98-1.73 3.76-3.59 5.54-5.52 4.2-4.27 8.87-7.11 14.1-9.94 1.09-0.598 2.19-1.2 3.31-1.81 8-3.54 16.1-3.02 24.2-0.125 6.04 2.55 10.6 5.55 15.4 9.94 0.512 0.46 1.02 0.921 1.55 1.4 10.6 9.53 20.6 19.6 30.5 29.7 0.508 0.513 1.02 1.03 1.54 1.55 1.4 1.41 2.79 2.82 4.18 4.23 2 2.11 2 2.11 4.18 3.08v2c0.536 0.206 1.07 0.413 1.62 0.625 3.29 1.91 5.97 4.42 8.38 7.38v2c0.866 0.371 0.866 0.371 1.75 0.75 2.58 1.43 4.31 3.03 6.25 5.25v2h2v2c0.549 0.211 1.1 0.423 1.66 0.641 3.16 1.84 5.32 4.4 7.71 7.11 4.59 5.08 9.28 10 14.1 14.9 0.881 0.887 0.881 0.887 1.78 1.79 2.3 2.29 4.51 4.42 7.13 6.36 0.526 0.405 1.05 0.81 1.59 1.23v2c0.959 0.402 0.959 0.402 1.94 0.812 2.06 1.19 2.06 1.19 3.06 4.19 1.32 0.697 2.65 1.36 4 2 1.84 1.6 1.84 1.6 3.77 3.53 0.734 0.733 1.47 1.47 2.23 2.22 0.796 0.805 1.59 1.61 2.41 2.44 0.846 0.847 1.69 1.69 2.56 2.57 2.32 2.32 4.63 4.65 6.94 6.98 2.43 2.44 4.86 4.88 7.29 7.32 4.61 4.62 9.22 9.25 13.8 13.9 8.23 8.27 16.5 16.5 24.7 24.8 2.42 2.42 4.83 4.85 7.24 7.28 2.7 2.71 5.4 5.42 8.1 8.14 0.788 0.795 1.58 1.59 2.39 2.41 4.15 4.16 8.36 8.1 12.9 11.8 1.76 1.74 2.56 3.4 3.63 5.61 0.66 0.33 1.32 0.66 2 1 2.53 1.26 2.76 2.53 4 5 0.561 0.256 1.12 0.513 1.7 0.777 3.22 1.71 5.55 4.21 8.09 6.79 0.568 0.568 1.14 1.14 1.72 1.72 1.87 1.88 3.74 3.76 5.61 5.64 1.3 1.31 2.61 2.62 3.92 3.92 3.44 3.44 6.87 6.89 10.3 10.3 3.48 3.5 6.96 6.99 10.4 10.5 5.64 5.65 11.3 11.3 16.9 17 1.44 1.45 2.88 2.9 4.32 4.34 0.91 0.916 1.82 1.83 2.76 2.77 1.83 1.82 3.68 3.48 5.68 5.1 3.14 2.64 5.73 5.52 8.3 8.71 1.23 1.55 1.23 1.55 3.26 2.42v2h2c1.35 1.65 2.69 3.32 4 5 0.66 0.33 1.32 0.66 2 1v2c0.866 0.34 0.866 0.34 1.75 0.688 2.85 1.66 4.25 3.7 6.25 6.31 3.27 3.33 6.61 6.58 9.95 9.84 20 19.6 20 19.6 27.1 30.2 0.732 1.05 1.46 2.1 2.22 3.18 6.41 9.69 10 20.2 10.8 31.8 0.0632 0.892 0.126 1.78 0.191 2.7 0.954 24.5-9.62 42.9-25.7 60.4-2.79 2.99-5.6 5.96-8.45 8.89-0.516 0.559-1.03 1.12-1.56 1.69-1.44 1.31-1.44 1.31-3.44 1.31-0.241 0.579-0.483 1.16-0.732 1.75-1.51 2.68-3.22 4.17-5.56 6.17-6.63 5.82-12.8 12.1-19 18.3-1.31 1.31-2.62 2.62-3.93 3.93-2.8 2.8-5.59 5.61-8.39 8.42-4.42 4.44-8.84 8.87-13.3 13.3-12.6 12.6-25.1 25.2-37.7 37.8-6.95 6.97-13.9 13.9-20.9 20.9-4.4 4.41-8.8 8.82-13.2 13.2-2.72 2.73-5.45 5.47-8.18 8.19-1.27 1.27-2.54 2.54-3.8 3.82-1.72 1.73-3.45 3.46-5.17 5.18-0.505 0.511-1.01 1.02-1.53 1.55-3.46 3.44-3.46 3.44-5.69 3.44-0.206 0.531-0.412 1.06-0.625 1.61-1.95 3.4-4.6 5.9-7.38 8.64-0.547 0.554-1.09 1.11-1.66 1.68-4.09 4.07-4.09 4.07-6.34 4.07-0.377 0.868-0.377 0.868-0.762 1.75-1.39 2.53-2.98 4.18-5.05 6.18-1.07 1.04-1.07 1.04-2.16 2.1-1 0.973-1 0.973-2.03 1.96-1.36 1.42-1.36 1.42-2.75 2.88-2.25 2.12-2.25 2.12-4.44 3.19-2.35 1.22-2.68 2.61-3.81 4.94-0.99 0.33-1.98 0.66-3 1-0.33 0.99-0.66 1.98-1 3h-2c-0.227 0.557-0.454 1.11-0.688 1.69-2.33 4.11-5.88 6.99-9.5 9.94-2.93 2.25-2.93 2.25-4.81 5.38h-2c-0.33 0.99-0.66 1.98-1 3-1.6 1.54-1.6 1.54-3.62 3.19-2.89 2.44-5.44 4.92-7.88 7.81-2.96 3.49-6.17 6.45-9.65 9.41-2.41 2.08-4.63 4.31-6.85 6.59-1.14 1.11-1.14 1.11-2.31 2.25-2.92 2.98-5.63 6.1-8.33 9.27-1.82 1.91-3.56 3.52-5.57 5.2-6.9 6.01-13.3 12.6-19.7 19.1-1.51 1.51-3.01 3.02-4.52 4.53-3.23 3.24-6.46 6.47-9.68 9.71-5.1 5.12-10.2 10.2-15.3 15.3-14.5 14.5-29 29.1-43.5 43.6-8.01 8.04-16 16.1-24.1 24.1-5.08 5.08-10.2 10.2-15.2 15.3-3.14 3.16-6.29 6.31-9.44 9.46-1.47 1.47-2.93 2.94-4.39 4.41-1.99 2-3.98 3.99-5.97 5.98-0.584 0.591-1.17 1.18-1.77 1.79-4 3.97-4 3.97-6.23 3.97-0.274 0.598-0.547 1.2-0.829 1.81-1.13 2.12-2.22 3.5-3.91 5.19-0.556 0.565-1.11 1.13-1.69 1.71-0.608 0.607-1.22 1.21-1.84 1.84-0.643 0.649-1.29 1.3-1.95 1.97-2.13 2.15-4.27 4.29-6.4 6.43-1.49 1.5-2.98 2.99-4.47 4.49-3.13 3.14-6.27 6.28-9.4 9.42-3.99 3.99-7.97 8-11.9 12-3.08 3.1-6.17 6.19-9.26 9.28-1.47 1.47-2.93 2.95-4.4 4.42-17.8 18-37.2 32.3-63.6 32.7-9.57 0.0293-18.1-0.239-27.3-3.24-0.829-0.244-1.66-0.487-2.51-0.738-11-3.75-20.6-12.1-29-20-2.04-1.9-4.12-3.73-6.23-5.55-4.42-3.85-8.6-7.92-12.7-12.1-1.09-1.07-1.09-1.07-2.2-2.17-1.03-1.03-1.03-1.03-2.08-2.07-0.619-0.615-1.24-1.23-1.88-1.86-1.34-1.58-1.34-1.58-1.34-3.58h-2v-2c-0.902-0.396-0.902-0.396-1.82-0.8-2.3-1.27-3.38-2.37-5.02-4.41-5.23-6.18-11-11.8-16.7-17.5-1.98-1.97-3.95-3.95-5.92-5.92-1.27-1.27-2.54-2.54-3.81-3.81-0.872-0.875-0.872-0.875-1.76-1.77-2.69-2.67-5.38-5.2-8.34-7.57-0.852-0.731-1.7-1.46-2.58-2.22v-2h-2c-1.44-1.5-1.44-1.5-3-3.44-2.15-2.71-2.15-2.71-5-4.56v-2c-0.552-0.227-1.1-0.454-1.67-0.687-3.02-1.7-5.11-3.86-7.56-6.32-0.515-0.514-1.03-1.03-1.56-1.56-1.72-1.72-3.44-3.45-5.16-5.18-1.24-1.24-2.47-2.47-3.71-3.71-2.66-2.66-5.32-5.33-7.97-8-4.2-4.22-8.4-8.43-12.6-12.6-6.65-6.66-13.3-13.3-19.9-20-11.9-11.9-23.8-23.9-35.7-35.8-4.18-4.19-8.36-8.38-12.5-12.6-2.6-2.61-5.2-5.21-7.8-7.82-1.21-1.21-2.41-2.42-3.61-3.63-1.64-1.65-3.29-3.3-4.93-4.95-1.38-1.39-1.38-1.39-2.79-2.8-2.34-2.33-2.34-2.33-4.78-4.03-0.552-0.43-1.1-0.861-1.67-1.3v-2h-2c-1.71-1.62-3.37-3.3-5-5-0.946-0.953-1.89-1.9-2.85-2.85-1.05-1.05-2.1-2.11-3.15-3.16-5.87-5.89-11.7-11.8-17.6-17.7-3.55-3.55-7.1-7.11-10.6-10.7-3.44-3.45-6.88-6.9-10.3-10.3-1.31-1.31-2.62-2.62-3.92-3.93-1.83-1.84-3.66-3.67-5.49-5.5-0.535-0.539-1.07-1.08-1.62-1.63-2.33-2.32-4.65-4.47-7.25-6.49-0.701-0.58-1.4-1.16-2.13-1.76v-2c-0.835-0.346-0.835-0.346-1.69-0.7-2.94-1.65-4.95-3.71-7.33-6.1-0.485-0.486-0.97-0.973-1.47-1.47-1.6-1.6-3.19-3.21-4.78-4.82-1.11-1.12-2.22-2.23-3.33-3.35-2.92-2.93-5.83-5.87-8.75-8.81-4.67-4.71-9.34-9.42-14-14.1-1.63-1.64-3.27-3.29-4.9-4.94-0.998-1-2-2.01-2.99-3.01-0.872-0.88-1.74-1.76-2.64-2.67-1.95-2.04-1.95-2.04-4.11-3v-2l-1.71-0.73c-2.74-1.52-4.61-3.38-6.85-5.58-11.9-11.2-26.6-19.4-40.2-28.3-33-21.5-33-21.5-36.8-36.8-4.06-24.1 14.6-46 27.6-64.6 1.61-2.31 3.21-4.62 4.81-6.94 1.03-1.48 1.03-1.48 2.08-2.99 4.77-6.95 9.41-14 14.1-21 4.64-6.99 9.38-13.9 14.1-20.8 3.39-4.94 6.74-9.9 10-14.9 3.24-4.89 6.54-9.74 9.88-14.6 5.05-7.3 9.96-14.7 14.9-22.1 5.2-7.83 10.4-15.6 15.8-23.4 8.22-11.9 16.2-24 24.2-36.1 7.75-11.7 15.6-23.3 23.5-34.8 7.61-11.1 15.2-22.2 22.6-33.4 1.25-1.88 2.5-3.75 3.75-5.62 2.26-3.4 4.53-6.79 6.79-10.2 7.24-10.9 14.5-21.7 21.8-32.6 9.3-13.8 18.6-27.5 27.8-41.4 3.33-5.03 6.75-9.99 10.2-14.9 2.15-3.07 4.23-6.18 6.3-9.31 0.867-1.3 1.73-2.61 2.6-3.91 1.35-2.04 2.71-4.08 4.06-6.12 7.1-10.7 14.3-21.3 21.5-31.9 4.76-6.98 9.47-14 14.1-21 0.52-0.783 1.04-1.57 1.58-2.37 0.476-0.718 0.953-1.44 1.44-2.17 7.76-11.7 15.6-23.3 23.7-34.8 2.92-4.15 5.65-8.41 8.35-12.7 5.87-9.22 12.1-18.2 18.2-27.3 9.18-13.5 18.3-27.1 27.3-40.7 4.22-6.35 8.48-12.7 12.9-18.9 2.14-3.05 4.2-6.15 6.25-9.26 3.98-6.01 8.04-12 12.1-17.9 3.11-4.51 6.15-9.05 9.17-13.6 3.34-5.04 6.75-10 10.2-14.9 0.396-0.56 0.793-1.12 1.2-1.7 7.42-10.3 16.2-18.2 28.9-21.3 16.4-2.62 27.2 4.23 40.2 13z" fill="#FCFDFF"/>
<path transform="translate(773 108)" d="m0 0c2.48 1.66 4.99 3.27 7.5 4.88 9.23 5.91 18.3 11.9 26.9 18.7 0.744 0.579 1.49 1.16 2.25 1.75 9.49 7.76 16.1 18.4 17.6 30.6 0.991 19.2-9.72 34.5-20.6 49.4-8.76 11.9-17 24.2-25.1 36.6-1.27 1.94-2.54 3.87-3.81 5.81-1.84 2.8-3.67 5.59-5.5 8.39-6.07 9.27-12.2 18.5-18.5 27.6-7.2 10.5-14.2 21.1-21.2 31.6-4.96 7.47-9.98 14.9-15.1 22.3-3.41 4.94-6.75 9.92-10.1 14.9-3.55 5.35-7.14 10.7-10.7 16-0.593 0.878-1.19 1.76-1.8 2.66-1.23 1.82-2.45 3.63-3.68 5.45-8.61 12.7-17.2 25.5-25.7 38.3-5.33 8.03-10.8 16-16.3 23.8-4.35 6.18-8.57 12.4-12.7 18.7-1.89 2.86-3.79 5.71-5.69 8.56-0.504 0.758-1.01 1.52-1.53 2.3-3.82 5.73-7.7 11.4-11.6 17.1-3.96 5.76-7.82 11.6-11.5 17.5-2.28 3.55-4.7 7.01-7.12 10.5-2.88 4.13-5.69 8.3-8.48 12.5-0.418 0.629-0.837 1.26-1.27 1.91-1.67 2.51-3.33 5.02-5 7.54-5.64 8.5-11.3 16.9-17.1 25.3-2.92 4.26-5.82 8.53-8.68 12.8-3.81 5.74-7.7 11.4-11.6 17.1-4.65 6.79-9.28 13.6-13.9 20.4-5.2 7.65-10.4 15.3-15.6 22.9-0.496 0.726-0.991 1.45-1.5 2.2-2.49 3.64-5 7.26-7.54 10.9-4.58 6.54-9.04 13.2-13.5 19.8-0.983 1.47-1.97 2.93-2.96 4.39-9.58 12.3-9.58 12.3-14.4 26.3 9.38-7.49 17.4-16.7 25.3-25.8 3.57-4.08 7.31-7.94 11.1-11.8 0.681-0.682 1.36-1.36 2.06-2.07 1.43-1.43 2.86-2.86 4.29-4.29 2.17-2.17 4.34-4.34 6.5-6.51 1.4-1.4 2.8-2.8 4.2-4.2 0.955-0.958 0.955-0.958 1.93-1.94 2.98-2.97 6-5.84 9.2-8.56 5.09-4.43 9.82-9.2 14.6-14 0.996-0.998 1.99-2 2.99-2.99 2.13-2.13 4.26-4.27 6.39-6.41 3.37-3.38 6.74-6.76 10.1-10.1 7.16-7.17 14.3-14.3 21.5-21.5 7.73-7.75 15.5-15.5 23.2-23.2 3.35-3.35 6.7-6.71 10-10.1 2.08-2.09 4.17-4.18 6.25-6.27 1.42-1.42 2.84-2.85 4.25-4.27 4.23-4.23 8.5-8.23 13.1-12 1.21-1.47 2.43-2.94 3.62-4.43 1.52-1.73 3.15-3.15 4.91-4.64 5.14-4.44 9.88-9.24 14.7-14.1 1.31-1.32 1.31-1.32 2.65-2.67 1.67-1.68 3.35-3.37 5.02-5.05 2.37-2.39 4.75-4.77 7.14-7.16 1.67-1.67 3.33-3.33 5-5 0.961-0.961 1.92-1.92 2.88-2.88 0.513-0.513 1.03-1.03 1.55-1.55 24.3-24.3 48.6-48.6 73-73 0.622-0.622 1.24-1.24 1.88-1.88 1.41-1.4 2.81-2.81 4.22-4.21 2.01-2.01 4.01-4.03 6.02-6.05 1.28-1.29 2.57-2.59 3.85-3.88 0.634-0.643 1.27-1.29 1.92-1.95 3.61-3.62 7.3-7.03 11.2-10.3 1.73-1.51 3.19-3.12 4.61-4.92 2.38-2.88 4.9-5.09 7.88-7.38 1.68-1.65 3.34-3.32 5-5 1.22-1.22 2.44-2.45 3.66-3.67 1.44-1.44 2.87-2.88 4.31-4.32 8.03-8.05 16.1-16.1 24.1-24.1 4.86-4.86 9.71-9.72 14.6-14.6 4.7-4.72 9.41-9.43 14.1-14.1 1.79-1.79 3.58-3.58 5.36-5.38 2.51-2.51 5.01-5.02 7.52-7.53 0.73-0.734 1.46-1.47 2.21-2.22 4.03-4.02 8.15-7.86 12.5-11.6 1.98-1.73 3.76-3.59 5.54-5.52 4.2-4.27 8.87-7.11 14.1-9.94 1.09-0.598 2.19-1.2 3.31-1.81 8-3.54 16.1-3.02 24.2-0.125 6.04 2.55 10.6 5.55 15.4 9.94 0.512 0.46 1.02 0.921 1.55 1.4 10.6 9.53 20.6 19.6 30.5 29.7 0.508 0.513 1.02 1.03 1.54 1.55 1.4 1.41 2.79 2.82 4.18 4.23 2 2.11 2 2.11 4.18 3.08v2c0.536 0.206 1.07 0.413 1.62 0.625 3.29 1.91 5.97 4.42 8.38 7.38v2c0.866 0.371 0.866 0.371 1.75 0.75 2.58 1.43 4.31 3.03 6.25 5.25v2h2v2c0.549 0.211 1.1 0.423 1.66 0.641 3.16 1.84 5.32 4.4 7.71 7.11 4.59 5.08 9.28 10 14.1 14.9 0.881 0.887 0.881 0.887 1.78 1.79 2.3 2.29 4.51 4.42 7.13 6.36 0.526 0.405 1.05 0.81 1.59 1.23v2c0.959 0.402 0.959 0.402 1.94 0.812 2.06 1.19 2.06 1.19 3.06 4.19 1.32 0.697 2.65 1.36 4 2 1.84 1.6 1.84 1.6 3.77 3.53 0.734 0.733 1.47 1.47 2.23 2.22 0.796 0.805 1.59 1.61 2.41 2.44 0.846 0.847 1.69 1.69 2.56 2.57 2.32 2.32 4.63 4.65 6.94 6.98 2.43 2.44 4.86 4.88 7.29 7.32 4.61 4.62 9.22 9.25 13.8 13.9 8.23 8.27 16.5 16.5 24.7 24.8 2.42 2.42 4.83 4.85 7.24 7.28 2.7 2.71 5.4 5.42 8.1 8.14 0.788 0.795 1.58 1.59 2.39 2.41 4.15 4.16 8.36 8.1 12.9 11.8 1.76 1.74 2.56 3.4 3.63 5.61 0.66 0.33 1.32 0.66 2 1 2.53 1.26 2.76 2.53 4 5 0.561 0.256 1.12 0.513 1.7 0.777 3.22 1.71 5.55 4.21 8.09 6.79 0.568 0.568 1.14 1.14 1.72 1.72 1.87 1.88 3.74 3.76 5.61 5.64 1.3 1.31 2.61 2.62 3.92 3.92 3.44 3.44 6.87 6.89 10.3 10.3 3.48 3.5 6.96 6.99 10.4 10.5 5.64 5.65 11.3 11.3 16.9 17 1.44 1.45 2.88 2.9 4.32 4.34 0.91 0.916 1.82 1.83 2.76 2.77 1.83 1.82 3.68 3.48 5.68 5.1 3.14 2.64 5.73 5.52 8.3 8.71 1.23 1.55 1.23 1.55 3.26 2.42v2h2c1.35 1.65 2.69 3.32 4 5 0.66 0.33 1.32 0.66 2 1v2c0.866 0.34 0.866 0.34 1.75 0.688 2.85 1.66 4.25 3.7 6.25 6.31 3.27 3.33 6.61 6.58 9.95 9.84 20 19.6 20 19.6 27.1 30.2 0.732 1.05 1.46 2.1 2.22 3.18 6.41 9.69 10 20.2 10.8 31.8 0.0632 0.892 0.126 1.78 0.191 2.7 0.954 24.5-9.62 42.9-25.7 60.4-2.79 2.99-5.6 5.96-8.45 8.89-0.516 0.559-1.03 1.12-1.56 1.69-1.44 1.31-1.44 1.31-3.44 1.31-0.241 0.579-0.483 1.16-0.732 1.75-1.51 2.68-3.22 4.17-5.56 6.17-6.63 5.82-12.8 12.1-19 18.3-1.31 1.31-2.62 2.62-3.93 3.93-2.8 2.8-5.59 5.61-8.39 8.42-4.42 4.44-8.84 8.87-13.3 13.3-12.6 12.6-25.1 25.2-37.7 37.8-6.95 6.97-13.9 13.9-20.9 20.9-4.4 4.41-8.8 8.82-13.2 13.2-2.72 2.73-5.45 5.47-8.18 8.19-1.27 1.27-2.54 2.54-3.8 3.82-1.72 1.73-3.45 3.46-5.17 5.18-0.505 0.511-1.01 1.02-1.53 1.55-3.46 3.44-3.46 3.44-5.69 3.44-0.206 0.531-0.412 1.06-0.625 1.61-1.95 3.4-4.6 5.9-7.38 8.64-0.547 0.554-1.09 1.11-1.66 1.68-4.09 4.07-4.09 4.07-6.34 4.07-0.377 0.868-0.377 0.868-0.762 1.75-1.39 2.53-2.98 4.18-5.05 6.18-1.07 1.04-1.07 1.04-2.16 2.1-1 0.973-1 0.973-2.03 1.96-1.36 1.42-1.36 1.42-2.75 2.88-2.25 2.12-2.25 2.12-4.44 3.19-2.35 1.22-2.68 2.61-3.81 4.94-0.99 0.33-1.98 0.66-3 1-0.33 0.99-0.66 1.98-1 3h-2c-0.227 0.557-0.454 1.11-0.688 1.69-2.33 4.11-5.88 6.99-9.5 9.94-2.93 2.25-2.93 2.25-4.81 5.38h-2c-0.33 0.99-0.66 1.98-1 3-1.6 1.54-1.6 1.54-3.62 3.19-2.89 2.44-5.44 4.92-7.88 7.81-2.96 3.49-6.17 6.45-9.65 9.41-2.41 2.08-4.63 4.31-6.85 6.59-1.14 1.11-1.14 1.11-2.31 2.25-2.92 2.98-5.63 6.1-8.33 9.27-1.82 1.91-3.56 3.52-5.57 5.2-6.9 6.01-13.3 12.6-19.7 19.1-1.51 1.51-3.01 3.02-4.52 4.53-3.23 3.24-6.46 6.47-9.68 9.71-5.1 5.12-10.2 10.2-15.3 15.3-14.5 14.5-29 29.1-43.5 43.6-8.01 8.04-16 16.1-24.1 24.1-5.08 5.08-10.2 10.2-15.2 15.3-3.14 3.16-6.29 6.31-9.44 9.46-1.47 1.47-2.93 2.94-4.39 4.41-1.99 2-3.98 3.99-5.97 5.98-0.584 0.591-1.17 1.18-1.77 1.79-4 3.97-4 3.97-6.23 3.97-0.274 0.598-0.547 1.2-0.829 1.81-1.13 2.12-2.22 3.5-3.91 5.19-0.556 0.565-1.11 1.13-1.69 1.71-0.608 0.607-1.22 1.21-1.84 1.84-0.643 0.649-1.29 1.3-1.95 1.97-2.13 2.15-4.27 4.29-6.4 6.43-1.49 1.5-2.98 2.99-4.47 4.49-3.13 3.14-6.27 6.28-9.4 9.42-3.99 3.99-7.97 8-11.9 12-3.08 3.1-6.17 6.19-9.26 9.28-1.47 1.47-2.93 2.95-4.4 4.42-17.8 18-37.2 32.3-63.6 32.7-9.57 0.0293-18.1-0.239-27.3-3.24-0.829-0.244-1.66-0.487-2.51-0.738-11-3.75-20.6-12.1-29-20-2.04-1.9-4.12-3.73-6.23-5.55-4.42-3.85-8.6-7.92-12.7-12.1-1.09-1.07-1.09-1.07-2.2-2.17-1.03-1.03-1.03-1.03-2.08-2.07-0.619-0.615-1.24-1.23-1.88-1.86-1.34-1.58-1.34-1.58-1.34-3.58h-2v-2c-0.902-0.396-0.902-0.396-1.82-0.8-2.3-1.27-3.38-2.37-5.02-4.41-5.23-6.18-11-11.8-16.7-17.5-1.98-1.97-3.95-3.95-5.92-5.92-1.27-1.27-2.54-2.54-3.81-3.81-0.872-0.875-0.872-0.875-1.76-1.77-2.69-2.67-5.38-5.2-8.34-7.57-0.852-0.731-1.7-1.46-2.58-2.22v-2h-2c-1.44-1.5-1.44-1.5-3-3.44-2.15-2.71-2.15-2.71-5-4.56v-2c-0.552-0.227-1.1-0.454-1.67-0.687-3.02-1.7-5.11-3.86-7.56-6.32-0.515-0.514-1.03-1.03-1.56-1.56-1.72-1.72-3.44-3.45-5.16-5.18-1.24-1.24-2.47-2.47-3.71-3.71-2.66-2.66-5.32-5.33-7.97-8-4.2-4.22-8.4-8.43-12.6-12.6-6.65-6.66-13.3-13.3-19.9-20-11.9-11.9-23.8-23.9-35.7-35.8-4.18-4.19-8.36-8.38-12.5-12.6-2.6-2.61-5.2-5.21-7.8-7.82-1.21-1.21-2.41-2.42-3.61-3.63-1.64-1.65-3.29-3.3-4.93-4.95-1.38-1.39-1.38-1.39-2.79-2.8-2.34-2.33-2.34-2.33-4.78-4.03-0.552-0.43-1.1-0.861-1.67-1.3v-2h-2c-1.71-1.62-3.37-3.3-5-5-0.946-0.953-1.89-1.9-2.85-2.85-1.05-1.05-2.1-2.11-3.15-3.16-5.87-5.89-11.7-11.8-17.6-17.7-3.55-3.55-7.1-7.11-10.6-10.7-3.44-3.45-6.88-6.9-10.3-10.3-1.31-1.31-2.62-2.62-3.92-3.93-1.83-1.84-3.66-3.67-5.49-5.5-0.535-0.539-1.07-1.08-1.62-1.63-2.33-2.32-4.65-4.47-7.25-6.49-0.701-0.58-1.4-1.16-2.13-1.76v-2c-0.835-0.346-0.835-0.346-1.69-0.7-2.94-1.65-4.95-3.71-7.33-6.1-0.485-0.486-0.97-0.973-1.47-1.47-1.6-1.6-3.19-3.21-4.78-4.82-1.11-1.12-2.22-2.23-3.33-3.35-2.92-2.93-5.83-5.87-8.75-8.81-4.67-4.71-9.34-9.42-14-14.1-1.63-1.64-3.27-3.29-4.9-4.94-0.998-1-2-2.01-2.99-3.01-0.872-0.88-1.74-1.76-2.64-2.67-1.95-2.04-1.95-2.04-4.11-3v-2l-1.71-0.73c-2.74-1.52-4.61-3.38-6.85-5.58-11.9-11.2-26.6-19.4-40.2-28.3-33-21.5-33-21.5-36.8-36.8-4.06-24.1 14.6-46 27.6-64.6 1.61-2.31 3.21-4.62 4.81-6.94 1.03-1.48 1.03-1.48 2.08-2.99 4.77-6.95 9.41-14 14.1-21 4.64-6.99 9.38-13.9 14.1-20.8 3.39-4.94 6.74-9.9 10-14.9 3.24-4.89 6.54-9.74 9.88-14.6 5.05-7.3 9.96-14.7 14.9-22.1 5.2-7.83 10.4-15.6 15.8-23.4 8.22-11.9 16.2-24 24.2-36.1 7.75-11.7 15.6-23.3 23.5-34.8 7.61-11.1 15.2-22.2 22.6-33.4 1.25-1.88 2.5-3.75 3.75-5.62 2.26-3.4 4.53-6.79 6.79-10.2 7.24-10.9 14.5-21.7 21.8-32.6 9.3-13.8 18.6-27.5 27.8-41.4 3.33-5.03 6.75-9.99 10.2-14.9 2.15-3.07 4.23-6.18 6.3-9.31 0.867-1.3 1.73-2.61 2.6-3.91 1.35-2.04 2.71-4.08 4.06-6.12 7.1-10.7 14.3-21.3 21.5-31.9 4.76-6.98 9.47-14 14.1-21 0.52-0.783 1.04-1.57 1.58-2.37 0.476-0.718 0.953-1.44 1.44-2.17 7.76-11.7 15.6-23.3 23.7-34.8 2.92-4.15 5.65-8.41 8.35-12.7 5.87-9.22 12.1-18.2 18.2-27.3 9.18-13.5 18.3-27.1 27.3-40.7 4.22-6.35 8.48-12.7 12.9-18.9 2.14-3.05 4.2-6.15 6.25-9.26 3.98-6.01 8.04-12 12.1-17.9 3.11-4.51 6.15-9.05 9.17-13.6 3.34-5.04 6.75-10 10.2-14.9 0.396-0.56 0.793-1.12 1.2-1.7 7.42-10.3 16.2-18.2 28.9-21.3 16.4-2.62 27.2 4.23 40.2 13zm245 253c-1.75 1.85-1.75 1.85-3.56 4.38-4.48 5.67-9.38 10.8-14.5 15.9-0.755 0.756-1.51 1.51-2.29 2.29-4.2 4.16-8.49 8.16-13 12-4.03 3.49-7.52 7.4-11 11.4-3.18 3.56-6.4 6.75-10.1 9.78-2.34 1.95-4.42 4.11-6.54 6.29-0.63 0.62-1.26 1.24-1.91 1.88-3.02 2.97-5.91 5.9-8.59 9.18-2.62 3.08-5.45 5.54-8.53 8.15-1.84 1.67-3.4 3.37-4.97 5.29-2.7 3.29-5.72 6-8.97 8.73-2.46 2.15-4.72 4.46-7.03 6.77-170 170-170 170-173 173-1.41 1.41-2.81 2.82-4.21 4.25-0.918 0.932-0.918 0.932-1.86 1.88-0.605 0.616-1.21 1.23-1.83 1.87-1.92 1.84-3.87 3.57-5.9 5.3-4.94 4.31-9.54 8.92-14.2 13.6-0.945 0.947-1.89 1.89-2.84 2.84-2.02 2.02-4.04 4.05-6.06 6.08-3.2 3.21-6.4 6.42-9.6 9.62-6.79 6.8-13.6 13.6-20.4 20.4-7.33 7.36-14.7 14.7-22 22.1-3.18 3.18-6.35 6.37-9.52 9.55-1.98 1.99-3.96 3.97-5.94 5.95-1.34 1.35-2.69 2.7-4.03 4.05-4.49 4.49-9.07 8.74-13.9 12.8-1.13 1.2-2.24 2.44-3.29 3.71-4.45 5.22-9.3 10-14.2 14.8-1.35 1.36-1.35 1.36-2.74 2.75-4.6 4.59-9.23 9.05-14.2 13.2-1.87 1.61-1.87 1.61-4.12 4.46-2 2.4-3.8 4.19-6.15 6.18-4.37 3.78-8.46 7.78-12.5 11.9-0.773 0.773-1.55 1.55-2.34 2.34-2.53 2.53-5.06 5.07-7.59 7.61-1.77 1.77-3.54 3.54-5.31 5.31-4.17 4.17-8.34 8.35-12.5 12.5-5.19 5.21-10.4 10.4-15.6 15.6-7.63 7.64-15.3 15.3-22.9 22.9-3.53 3.54-7.07 7.08-10.6 10.6l-2.38 2.38c-0.866 0.866-1.73 1.73-2.62 2.62-0.525 0.536-1.05 1.07-1.59 1.62-3.05 3.09-6.14 6.08-9.41 8.94l-2 1.75c-1.33 1.12-2.7 2.21-4.1 3.25-0.648 0.495-1.3 0.99-1.96 1.5l-1.79 1.29c-1.43 1.69-1.43 1.69-1.04 4.41 1.08 3.95 3.01 6.06 5.87 8.83 0.524 0.528 1.05 1.06 1.59 1.6 1.76 1.76 3.53 3.51 5.3 5.26 1.26 1.26 2.53 2.53 3.79 3.79 3.43 3.43 6.87 6.85 10.3 10.3 3.61 3.57 7.2 7.16 10.8 10.8 6.81 6.8 13.6 13.6 20.5 20.4 7.75 7.7 15.5 15.4 23.2 23.1 13.2 13.2 26.5 26.4 39.7 39.5 0.561 0.557 1.12 1.11 1.7 1.69 1.03 1.02 2.05 2.04 3.08 3.06 8.23 8.17 8.23 8.17 10.7 10.8 1.39 1.44 2.83 2.82 4.27 4.2h2c0.227 0.577 0.454 1.16 0.688 1.75 1.66 2.85 3.7 4.25 6.31 6.25 1.68 1.65 3.35 3.32 5 5 0.734 0.736 1.47 1.47 2.22 2.23 0.755 0.758 1.51 1.52 2.29 2.3 0.874 0.877 1.75 1.75 2.65 2.66 0.465 0.467 0.93 0.933 1.41 1.41 10.8 10.8 21.6 21.6 32.3 32.4 6.23 6.24 12.5 12.5 18.7 18.7 5.44 5.46 10.9 10.9 16.3 16.4 2.88 2.88 5.75 5.76 8.62 8.65 2.71 2.72 5.42 5.43 8.13 8.15 0.987 0.988 1.97 1.98 2.96 2.97 8.11 8.17 16.6 16.1 26.4 22.1 0.898 0.557 1.8 1.11 2.72 1.69 3.19 1.89 4.95 2.45 8.65 2.44 0.782 0.00258 1.56 0.00516 2.37 0.00781 2.37-0.049 2.37-0.049 5.19-1.13 0.66 0.33 1.32 0.66 2 1 7.81 1.01 13.5-1.79 20-6 4.26-3.38 8.1-7.22 12-11 1.78-1.56 3.58-3.08 5.4-4.59 2.3-2.04 4.43-4.24 6.6-6.41 0.993-0.995 1.99-1.99 2.98-2.98 1.12-1.12 2.25-2.25 3.37-3.37 1.29-1.3 2.59-2.59 3.88-3.89 0.687-0.688 1.37-1.38 2.08-2.08 15.8-15.8 31.6-31.6 47.4-47.4 9.13-9.14 18.3-18.3 27.4-27.4 7.97-7.98 15.9-16 23.9-23.9 4.22-4.22 8.44-8.44 12.7-12.7 3.96-3.97 7.93-7.94 11.9-11.9 1.46-1.46 2.91-2.92 4.37-4.38 1.98-1.99 3.97-3.97 5.95-5.95 0.579-0.582 1.16-1.16 1.76-1.76 2.36-2.35 4.57-4.36 7.34-6.21v-2c0.557-0.227 1.11-0.454 1.69-0.688 4-2.27 6.85-4.93 8.31-9.31 1.33-0.667 2.67-1.33 4-2 3.83-3.44 3.83-3.44 6-8 1.33-0.667 2.67-1.33 4-2 0.33-0.99 0.66-1.98 1-3 1.33-0.667 2.67-1.33 4-2 5.04-4.79 9.68-10 14.4-15.1 3.68-3.96 7.4-7.51 11.6-10.9 4.25-4.02 8.06-8.41 11.9-12.8 2.09-2.21 2.09-2.21 5.09-4.21v-2c0.573-0.248 1.15-0.496 1.74-0.751 2.62-1.45 4.37-3.11 6.48-5.23 0.834-0.833 1.67-1.67 2.53-2.52 0.907-0.915 1.81-1.83 2.75-2.77 0.971-0.973 1.94-1.95 2.91-2.92 2.09-2.09 4.17-4.19 6.26-6.28 3.29-3.32 6.59-6.62 9.9-9.93 5.22-5.23 10.4-10.5 15.6-15.7 9.34-9.38 18.7-18.8 28-28.1 3.28-3.29 6.56-6.58 9.84-9.88 2.04-2.05 4.08-4.09 6.12-6.14 1.4-1.4 2.79-2.81 4.19-4.21 0.831-0.833 1.66-1.67 2.52-2.52 0.722-0.726 1.44-1.45 2.19-2.2 1.9-1.79 1.9-1.79 4.9-3.79v-2c0.99-0.33 1.98-0.66 3-1 1.2-1.39 2.4-2.78 3.52-4.23 2.01-2.41 4.24-4.56 6.48-6.77 1.36-1.38 1.36-1.38 2.75-2.79 0.927-0.936 1.85-1.87 2.81-2.84 0.469-0.477 0.937-0.954 1.42-1.45 2.03-2.05 4.03-3.94 6.36-5.64l1.66-1.29v-2c0.579-0.253 1.16-0.505 1.75-0.766 5.17-2.84 9.22-7.9 12.9-12.4 3.88-4.72 8.22-8.65 13-12.5 0.447-0.44 0.895-0.879 1.36-1.33v-2c0.639-0.268 1.28-0.536 1.94-0.812 2.39-1.07 2.39-1.07 3.06-4.19 1.32-0.686 2.66-1.35 4-2 1.51-1.34 2.96-2.74 4.38-4.17 0.858-0.861 1.72-1.72 2.6-2.61 1.38-1.4 1.38-1.4 2.79-2.83 0.963-0.97 1.93-1.94 2.89-2.91 2.54-2.55 5.07-5.11 7.6-7.67 4.04-4.08 8.08-8.16 12.1-12.2 1.4-1.41 2.8-2.83 4.21-4.25 4.64-4.68 9.35-9.11 14.4-13.3 1.2-1.3 2.38-2.63 3.5-4 2.81-3.33 5.8-6.08 9.21-8.77 0.424-0.405 0.848-0.81 1.29-1.23v-2c0.99-0.33 1.98-0.66 3-1v-2c0.584-0.259 1.17-0.518 1.77-0.785 11.9-6.48 23.6-23.4 28.2-35.9 1.21-4.19 1.51-7.98 1.06-12.3-0.058-0.663-0.116-1.33-0.176-2.01-1.79-11.7-9.82-21.6-17.8-29.9-2-2.11-2-2.11-3-4.11h-2c-0.247-0.619-0.495-1.24-0.75-1.88-1.46-2.48-2.63-3.08-5.25-4.12v-2h-2v-2h-2v-2h-2v-2h-2v-2h-2v-2h-2v-2h-2v-2h-2v-2c-1.42-1.44-1.42-1.44-3.31-2.94-5.52-4.7-10.6-9.83-15.7-15-1.09-1.09-2.17-2.17-3.26-3.26-2.93-2.93-5.86-5.86-8.78-8.79-3.07-3.08-6.15-6.15-9.22-9.23-5.82-5.82-11.6-11.6-17.4-17.5-6.6-6.61-13.2-13.2-19.8-19.8-11.3-11.3-22.6-22.6-33.9-33.9-0.929-0.931-1.86-1.86-2.82-2.82-1.21-1.21-1.21-1.21-2.44-2.44-0.768-0.769-1.54-1.54-2.33-2.33-0.882-0.923-1.76-1.85-2.67-2.8-2.04-2.43-2.04-2.43-4.33-2.2v-2h-2c-0.204-0.53-0.407-1.06-0.617-1.61-1.98-3.44-4.69-5.95-7.51-8.71-0.544-0.543-1.09-1.09-1.65-1.65-2.91-2.88-5.88-5.63-8.99-8.3-4.05-3.53-7.86-7.24-11.6-11.1-0.69-0.694-1.38-1.39-2.09-2.1-1.48-1.49-2.97-2.98-4.45-4.48-2.34-2.36-4.69-4.72-7.04-7.07-6.67-6.69-13.3-13.4-20-20.1-4.08-4.11-8.17-8.22-12.3-12.3-1.56-1.56-3.11-3.13-4.67-4.7-2.16-2.18-4.33-4.36-6.5-6.53-0.644-0.653-1.29-1.31-1.95-1.98-2.81-3.28-2.81-3.28-6.67-4.43-0.238-0.572-0.477-1.14-0.723-1.73-1.54-2.74-3.37-4.43-5.71-6.52-1.17-1.06-1.17-1.06-2.37-2.14-2.14-1.91-2.14-1.91-5.19-1.61z"/>
<path transform="translate(969 690)" d="m0 0c8.44 5.41 15.1 12.3 17.9 22.1 1.52 7.47 0.722 14.3-1.19 21.6-0.366 1.42-0.733 2.84-1.1 4.27-0.294 1.13-0.294 1.13-0.594 2.28-0.85 3.28-1.68 6.56-2.5 9.84-5.11 20.2-10.3 40.4-16.1 60.5-3.31 11.6-6.38 23.2-9.38 34.9-0.196 0.762-0.392 1.52-0.594 2.31-1.98 7.7-3.94 15.4-5.82 23.1-3.92 16.2-8.47 32-13.4 47.9-1.3 4.16-2.55 8.33-3.78 12.5-0.588 1.96-1.18 3.93-1.77 5.89-0.245 0.864-0.49 1.73-0.742 2.62-2.13 6.95-5.66 12.1-11.8 16.1-8.95 4.52-20.9 5.68-30.5 2.85-9.2-4.31-16.6-11.5-23.8-18.5-0.8-0.786-0.8-0.786-1.62-1.59-3.76-3.79-3.76-3.79-3.76-6.04h-2v-2h-2v-2c-0.58-0.255-1.16-0.51-1.76-0.773-2.47-1.35-4.14-2.86-6.13-4.85-0.709-0.706-1.42-1.41-2.15-2.14-0.73-0.737-1.46-1.47-2.21-2.23-0.745-0.737-1.49-1.47-2.26-2.23-0.704-0.706-1.41-1.41-2.13-2.14-0.645-0.647-1.29-1.29-1.95-1.96-1.41-1.66-1.41-1.66-1.41-3.66h-2c-4.77-4.3-4.77-4.3-6-8-0.897-0.433-0.897-0.433-1.81-0.875-2.87-1.48-4.24-3.59-6.19-6.12-0.66-0.33-1.32-0.66-2-1v-2h-2v-2c-0.866-0.371-0.866-0.371-1.75-0.75-2.58-1.43-4.31-3.03-6.25-5.25v-2h-2v-2h-2v-2c-0.557-0.231-1.11-0.462-1.69-0.7-2.94-1.65-4.95-3.71-7.33-6.1-0.485-0.486-0.97-0.973-1.47-1.47-1.6-1.6-3.19-3.21-4.78-4.82-1.11-1.12-2.22-2.23-3.33-3.35-2.92-2.93-5.83-5.87-8.75-8.81-4.67-4.71-9.34-9.42-14-14.1-1.63-1.64-3.27-3.29-4.9-4.94-0.998-1-2-2.01-2.99-3.01-0.872-0.88-1.74-1.76-2.64-2.67-1.95-2.04-1.95-2.04-4.11-3v-2h-2v-2c-0.589-0.26-1.18-0.521-1.79-0.789-2.36-1.29-3.81-2.63-5.64-4.59-0.629-0.67-1.26-1.34-1.91-2.03-0.654-0.711-1.31-1.42-1.98-2.15-1.01-1.09-1.01-1.09-2.03-2.2-16.4-17.9-16.4-17.9-17.2-29.4 0.474-9.83 4.72-21.2 11.8-28 3.31-2.22 6.72-3.73 10.4-5.14 0.767-0.296 1.53-0.591 2.32-0.896 11.1-4.11 22.6-6.87 34-9.79 8.32-2.17 16.6-4.44 24.9-6.81 0.892-0.255 1.78-0.51 2.7-0.772 4.67-1.33 9.33-2.68 14-4.04 14.5-4.2 29.2-7.78 44-11.2 9.24-2.14 18.4-4.51 27.5-7.2 12.6-3.6 25.2-7.11 37.9-10.2 7.22-1.77 14.4-3.75 21.5-5.77 9.12-2.55 15.6-3.3 24.2 1.43z"/>
<path transform="translate(440 754)" d="m0 0c2.73 0.141 2.73 0.141 5.73 2.14 0.326 2.88 0.422 5.49 0.375 8.38-0.00943 0.924-0.0189 1.85-0.0286 2.8-0.252 12.5-1.45 25-2.59 37.4-0.578 6.32-1.11 12.6-1.62 19-0.409 5-0.832 10-1.26 15-0.208 2.48-0.411 4.96-0.608 7.45-0.28 3.51-0.582 7.02-0.889 10.5-0.0792 1.05-0.158 2.11-0.24 3.19-0.68 7.42-2.22 12.2-7.45 17.7-3.78 2.2-5.35 2.4-9.69 1.56-6.05-3.61-11.1-8.01-16-13-1.26-1.27-1.26-1.27-2.56-2.57-1.32-1.33-1.32-1.33-2.68-2.69-1.48-1.49-2.96-2.97-4.44-4.46-1.02-1.03-2.04-2.05-3.06-3.08-1.48-1.49-2.96-2.98-4.44-4.47-0.879-0.885-1.76-1.77-2.66-2.68-1.99-2.09-1.99-2.09-4.17-3.05v-2h-2c-1.35-1.65-2.69-3.32-4-5-0.99-0.495-0.99-0.495-2-1v-2h-2c-1.55-1.61-1.55-1.61-3.31-3.75-1.99-2.35-3.77-4.32-6.19-6.25-2.95-2.36-5.23-5.02-7.66-7.9-5.36-6.1-11.5-11.5-17.4-17-15.9-14.9-15.9-14.9-16.8-22.1 0.46-3.6 0.977-5.18 3.38-7.94 12.8-8.52 33.3-8.09 48.1-9.56 1.06-0.108 2.12-0.215 3.21-0.326 21.7-2.19 43.3-3.31 65-4.25z" fill="#FCFDFF"/>
<path transform="translate(656,571)" d="m0 0c0.99 0.66 1.98 1.32 3 2-0.154 0.543-0.309 1.09-0.468 1.65-2.22 9.8-1.8 20.5-2.16 30.5-0.0904 2.48-0.184 4.95-0.278 7.43-0.2 5.26-0.396 10.5-0.591 15.8-0.227 6.1-0.456 12.2-0.688 18.3-0.091 2.41-0.179 4.82-0.267 7.23-0.136 3.67-0.288 7.33-0.453 11-0.062 1.42-0.119 2.83-0.173 4.25-0.0788 2.05-0.176 4.11-0.277 6.16-0.0515 1.17-0.103 2.35-0.156 3.55-0.791 5.11-3.3 8.25-7.03 11.7-0.681 0.629-1.36 1.26-2.06 1.91-0.706 0.642-1.41 1.28-2.14 1.95-9.26 8.32-9.26 8.32-17.6 17.6-0.557 0.681-1.11 1.36-1.69 2.06h-2c-0.33 0.99-0.66 1.98-1 3-2.81 1.81-2.81 1.81-6 3-2.2-0.926-2.2-0.926-4-2-0.101-15.4-0.123-30.8 0.651-46.3 0.321-7.25 0.351-14.5 0.275-21.7-0.00827-0.967-0.0165-1.93-0.0251-2.93-0.0425-4.87-0.105-9.74-0.202-14.6-0.0191-1.81-0.0374-3.61-0.0547-5.42-0.0238-0.827-0.0476-1.65-0.0722-2.51-0.0316-7.04 2.77-11 7.5-16.1 0.577-0.621 1.15-1.24 1.75-1.88 0.924-0.976 0.924-0.976 1.87-1.97 0.649-0.69 1.3-1.38 1.97-2.09 6.26-6.57 12.8-12.8 19.5-18.9 4.4-4.09 8.66-8.3 12.9-12.6z" fill="#FCFDFF"/>
<path transform="translate(869,361)" d="m0 0 2 1c-0.397 21.9-0.896 43.8-1.81 65.6-0.0811 1.93-0.16 3.86-0.237 5.79-0.392 9.73-0.917 19.4-1.83 29.1-0.0991 1.18-0.0991 1.18-0.2 2.38-0.555 5.4-1.75 8.74-5.79 12.4-0.704 0.559-1.41 1.12-2.13 1.7-1.71 1.58-3.42 3.17-5.12 4.75-2.42 2.15-4.83 4.22-7.4 6.18-2.7 2.26-4.73 4.67-6.91 7.45-7.12 8.81-7.12 8.81-10.6 11.6-2.67-0.359-2.67-0.359-5-1-0.103-20.5-0.107-40.9 0.649-61.4 0.349-9.81 0.408-19.6 0.138-29.4-0.174-11.5 4.74-18.6 12.2-27.2 3.43-3.51 6.98-6.84 10.6-10.1 5.2-4.71 10.1-9.61 15-14.7 2.11-1.97 3.66-3.27 6.38-4.21z" fill="#FCFDFF"/>
<path transform="translate(762,467)" d="m0 0 2 1c-0.233 8.12-0.478 16.2-0.732 24.3-0.163 5.24-0.323 10.5-0.48 15.7-0.194 6.48-0.396 13-0.603 19.4-0.0816 2.6-0.161 5.2-0.237 7.8-0.714 24.2-0.714 24.2-1.7 35.2-0.0493 0.707-0.0986 1.41-0.149 2.14-0.533 5.03-2.31 7.17-6.1 10.4-0.555 0.555-1.11 1.11-1.68 1.68l-8.16 8.16c-0.807 0.808-0.807 0.808-1.63 1.63-1.34 1.34-2.68 2.67-4.03 4-1.91 1.93-3.79 3.88-5.66 5.85-1.11 1.16-2.23 2.32-3.34 3.48-0.556 0.597-1.11 1.19-1.68 1.81-4.15 4.27-4.15 4.27-7.66 4.83-2.16-0.449-2.16-0.449-3.16-1.45-0.0982-1.77-0.125-3.55-0.124-5.32-7.45e-4 -1.15-0.00149-2.31-0.00226-3.5 0.00558-1.28 0.0112-2.55 0.0169-3.87 0.00256-0.987 0.00256-0.987 0.00517-1.99 0.0427-16.2 0.341-32.3 0.739-48.4 0.0803-3.29 0.149-6.59 0.209-9.88 0.0738-4.06 0.166-8.12 0.272-12.2 0.0368-1.52 0.0671-3.05 0.0906-4.57 0.0338-2.11 0.0918-4.22 0.156-6.33 0.0266-1.19 0.0533-2.39 0.0807-3.62 0.901-5.32 3.99-8.98 7.73-12.7 0.595-0.601 1.19-1.2 1.8-1.82 0.632-0.628 1.26-1.26 1.92-1.9 0.663-0.665 1.33-1.33 2.01-2.02 1.4-1.4 2.8-2.8 4.21-4.2 2.13-2.12 4.25-4.25 6.37-6.38 1.37-1.37 2.74-2.73 4.11-4.1 0.624-0.628 1.25-1.26 1.89-1.9 4.23-4.18 8.69-7.8 13.5-11.3z" fill="#FCFDFF"/>
<path transform="translate(548,679)" d="m0 0c0.66 0.33 1.32 0.66 2 1 0.192 15.9-0.324 31.8-0.8 47.7-0.0923 3.09-0.182 6.17-0.271 9.26-0.249 8.74-0.514 17.5-0.807 26.2-0.0779 2.38-0.152 4.76-0.219 7.14-0.0811 2.83-0.179 5.65-0.283 8.48-0.0184 0.779-0.0369 1.56-0.0559 2.36-0.235 5.54-1.6 8.69-5.36 12.7-0.652 0.593-1.3 1.19-1.98 1.8-0.726 0.67-1.45 1.34-2.2 2.03-0.754 0.685-1.51 1.37-2.29 2.08-5.63 5.13-10.8 10.4-15.8 16.2-1.64 1.88-3.3 3.74-5 5.56-0.784 0.868-1.57 1.74-2.38 2.63-3.55 2.45-5.51 1.56-9.62 0.809 0.0376-1.68 0.0376-1.68 0.0759-3.39 0.237-10.6 0.472-21.1 0.706-31.7 0.12-5.43 0.241-10.9 0.363-16.3 0.118-5.25 0.234-10.5 0.35-15.7 0.0443-2 0.0889-3.99 0.134-5.99 0.0633-2.81 0.125-5.61 0.187-8.42 0.0187-0.815 0.0374-1.63 0.0567-2.47 0.0252-1.17 0.0252-1.17 0.051-2.36 0.0178-0.758 0.0357-1.52 0.0541-2.3 0.0155-1.68-0.00779-3.35-0.0579-5.03-0.0232-0.88-0.0465-1.76-0.0704-2.67-0.0317-0.794-0.0633-1.59-0.0959-2.41 0.473-4.34 3.37-7.17 6.25-10.3 0.782-0.89 0.782-0.89 1.58-1.8 1.65-1.85 3.34-3.65 5.05-5.45 0.941-0.997 0.941-0.997 1.9-2.01 5.68-5.97 11.5-11.8 17.3-17.7 0.878-0.883 1.76-1.77 2.66-2.67 0.82-0.818 1.64-1.64 2.48-2.48 0.732-0.731 1.46-1.46 2.22-2.21 1.82-1.7 1.82-1.7 3.82-2.7z" fill="#FCFDFF"/>
<path transform="translate(739,254)" d="m0 0c0.723 2.23 0.723 2.23 1 5-1.44 2.14-1.44 2.14-3.56 4.25-3.45 3.62-6.25 7.24-8.95 11.4-1.55 2.4-3.2 4.72-4.86 7.05-3.51 4.98-6.68 10.1-9.83 15.4-0.593 0.951-1.19 1.9-1.8 2.88-0.565 1.12-0.565 1.12-1.14 2.27-3.17 2.95-7.18 3-11.4 3.61-2.03 0.334-4.06 0.673-6.09 1.02-1.06 0.179-2.12 0.357-3.22 0.541-5.14 0.914-10.2 2.04-15.3 3.19-1.07 0.242-2.15 0.484-3.26 0.733-3.12 0.705-6.23 1.41-9.35 2.13-4.48 1.02-8.97 2.04-13.5 3.06-5.92 1.34-11.8 2.69-17.7 4.03-0.928 0.211-1.86 0.423-2.81 0.64-1.74 0.396-3.48 0.792-5.22 1.19-0.794 0.181-1.59 0.362-2.41 0.548-1.14 0.261-1.14 0.261-2.31 0.528-1.61 0.363-3.23 0.718-4.84 1.07-0.808 0.175-1.62 0.349-2.45 0.529-0.726 0.154-1.45 0.309-2.2 0.468-1.91 0.409-1.91 0.409-3.83 1.46-0.507-5.4 1.14-8.91 3.81-13.4 0.401-0.694 0.802-1.39 1.21-2.1 4.08-6.91 8.77-13.3 13.6-19.7 1.29-1.71 2.54-3.44 3.78-5.19 0.758-1.05 1.52-2.11 2.3-3.2 0.655-0.92 1.31-1.84 1.98-2.79 6.01-6.86 12.1-8.71 21-10.5 1.74-0.366 1.74-0.366 3.52-0.74 3.23-0.672 6.46-1.33 9.7-1.97 2.16-0.431 4.33-0.866 6.49-1.3 16-3.23 32.1-6.36 48.3-8.87 6.38-1.01 12.9-3.63 19.3-3.24z" fill="#FCFDFF"/>
<path transform="translate(490,627)" d="m0 0c-0.522 3.73-1.22 5.65-3.88 8.31-7.56 8.21-13.4 18-19.5 27.3-9.44 14.2-9.44 14.2-15.9 16-2.76 0.543-5.51 0.997-8.29 1.42-5.76 0.918-11.4 1.89-17.1 3.37-7.81 2.02-15.7 3.26-23.7 4.57-14.4 2.39-28.7 4.87-42.9 8.55-2.94 0.474-4.95 0.226-7.8-0.547 1.62-5.07 4.67-8.91 7.81-13.1 5.45-7.43 10.7-15 15.9-22.6 1.42-2.1 2.87-4.2 4.32-6.28 0.638-0.922 1.28-1.84 1.93-2.79 5.63-6.02 11.5-6.89 19.4-7.64 6.96-0.667 13.5-1.96 20.2-3.9 9.76-2.83 19.6-4.85 29.6-6.79 1.7-0.337 3.4-0.674 5.1-1.01 4.94-0.977 9.89-1.92 14.8-2.86 0.817-0.157 1.63-0.314 2.48-0.476 2.36-0.451 4.72-0.892 7.08-1.33 0.709-0.137 1.42-0.273 2.15-0.414 3.25-0.589 5.1-0.845 8.29 0.219z" fill="#FCFDFF"/>
<path transform="translate(656,379)" d="m0 0c-3.32 6.4-6.87 12.4-11.1 18.3-2.21 3.14-4.29 6.36-6.35 9.6-2.95 4.62-5.92 9.23-8.94 13.8-0.626 0.953-1.25 1.91-1.9 2.89-3.66 5.14-3.66 5.14-7.42 6.15-1.08 0.162-2.16 0.324-3.28 0.491-1.82 0.285-1.82 0.285-3.68 0.575-0.969 0.143-0.969 0.143-1.96 0.29-3.43 0.51-6.86 1.07-10.3 1.62-0.693 0.11-1.39 0.22-2.1 0.334-15.9 2.53-31.5 6.04-47.2 9.57-1.55 0.351-3.11 0.7-4.67 1.05-7.57 1.7-14.9 3.46-22.1 6.36-3 0.188-3 0.188-5 0-1-3-1-3-0.262-4.75 0.402-0.643 0.805-1.29 1.22-1.95 0.672-1.09 0.672-1.09 1.36-2.2 0.494-0.775 0.989-1.55 1.5-2.35 0.503-0.803 1.01-1.61 1.52-2.43 4.35-6.91 8.8-13.8 13.4-20.5 1.29-1.9 2.55-3.81 3.81-5.73 0.852-1.26 1.7-2.52 2.56-3.79 0.371-0.577 0.743-1.15 1.13-1.75 3.9-5.65 9.35-8.24 16-9.57 1.5-0.25 3.01-0.485 4.52-0.709 0.82-0.133 1.64-0.267 2.49-0.404 1.75-0.284 3.5-0.562 5.25-0.835 4.62-0.722 9.23-1.49 13.8-2.25 0.918-0.151 1.84-0.303 2.78-0.458 30.4-4.97 30.4-4.97 60-13 1.94-0.314 1.94-0.314 4.94 1.69z" fill="#FCFDFF"/>
<path transform="translate(573,501)" d="m0 0c0.446 3.48 0.115 4.82-1.84 7.8-0.838 1.01-1.68 2.03-2.54 3.07-3.83 4.75-7.4 9.59-10.8 14.7-0.413 0.627-0.825 1.25-1.25 1.9-0.816 1.24-1.63 2.49-2.44 3.73-1.83 2.8-3.7 5.58-5.56 8.37-0.606 0.909-1.21 1.82-1.84 2.75-0.59 0.886-1.18 1.77-1.79 2.68-0.566 1.06-1.13 2.11-1.71 3.2-3.01 3.69-5.98 4.22-10.5 4.98-0.789 0.155-1.58 0.309-2.39 0.468-2.47 0.476-4.94 0.914-7.42 1.34-1.56 0.28-3.12 0.56-4.68 0.84-2.16 0.385-4.32 0.765-6.48 1.12-3.31 0.551-6.56 1.2-9.8 2.05-3.36 0.867-6.68 1.39-10.1 1.82-12.2 1.54-24.1 4.44-36 7.38-6.94 1.7-13.7 3.25-20.9 3.78-0.33-0.99-0.66-1.98-1-3 1.41-2.13 1.41-2.13 3.5-4.56 5.81-6.96 10.8-14.4 15.8-21.9 2.08-3.1 4.18-6.18 6.3-9.25 0.735-1.07 1.47-2.13 2.23-3.23 6.64-9.33 6.64-9.33 13.5-10.7 1.36-0.205 2.72-0.402 4.07-0.595 1.52-0.23 3.05-0.461 4.57-0.692 0.799-0.119 1.6-0.238 2.42-0.361 16.4-2.46 32.3-5.76 48.3-9.87 5.98-1.5 12-2.82 18-4.13 5.13-1.14 10.1-2.53 15.1-4.21 2.14-0.479 2.14-0.479 5.14 0.521z" fill="#FCFDFF"/>
<path transform="translate(744,126)" d="m0 0c7.15 3.6 13.5 8.81 19.9 13.6 5.75 4.26 11.7 8.22 17.7 12.1 6.1 3.98 12.3 8.2 16.3 14.3 0.258 2.69 0.089 5.29 0 8-10.5 6.3-21.5 8.56-33.2 11.1-2.81 0.627-5.63 1.26-8.44 1.89-1.83 0.411-3.67 0.819-5.5 1.23-5.56 1.23-11.1 2.55-16.6 3.96-5.38 1.37-10.7 2.56-16.2 3.42-4.04 0.651-8.01 1.35-12 2.39-4.15 1.07-8.28 1.63-12.5 2.11-0.727 0.0864-1.45 0.173-2.2 0.262-1.77 0.209-3.53 0.412-5.3 0.613 0.572-4.08 1.87-6.76 4.12-10.2 0.636-0.968 1.27-1.94 1.93-2.93 2.3-3.39 4.64-6.75 7-10.1 2.34-3.36 4.62-6.76 6.88-10.2 0.429-0.644 0.858-1.29 1.3-1.95 1.96-2.94 3.9-5.89 5.83-8.85 4.96-7.58 10.4-14.7 15.9-21.8 0.7-0.919 1.4-1.84 2.12-2.79 0.62-0.813 1.24-1.63 1.88-2.46 0.536-0.706 1.07-1.41 1.62-2.14 2.9-3.4 5.29-2.56 9.38-1.61z" fill="#FCFDFF"/>
<path transform="translate(945,287)" d="m0 0c6.92 4.34 12.6 10.5 18.3 16.3 2.87 2.92 5.75 5.75 8.87 8.4 20.4 17.5 20.4 17.5 22.6 28.1-0.277 6.15-5.42 9.83-9.64 13.8-0.842 0.822-1.68 1.64-2.55 2.49-6.24 6.01-6.24 6.01-8.57 6.01-0.495 1.49-0.495 1.49-1 3-1.49 1.47-1.49 1.47-3.43 3.07-5.14 4.36-9.87 9.09-14.6 13.9-0.859 0.855-1.72 1.71-2.6 2.59-4.45 4.46-8.77 8.98-12.9 13.8-1.44 1.65-2.84 3.23-4.47 4.69h-2l-1 2c-1.13-3.38-1.13-5.95-1.13-9.52-0.00141-0.667-0.00282-1.33-0.00427-2.02-0.00217-2.24 0.00427-4.48 0.0121-6.71 0.00155-0.776 0.0031-1.55 0.0047-2.35 0.0306-13.3 0.194-26.5 0.44-39.8 0.0365-1.99 0.0705-3.99 0.102-5.98 0.169-10.4 0.547-20.7 1.49-31.1 0.0761-0.858 0.152-1.72 0.231-2.6 0.624-6.25 1.72-12.4 4.86-17.9 2.75-1.38 4.07-0.844 7 0z" fill="#FCFDFF"/>
<path transform="translate(357 774)" d="m0 0c5.16 4.44 8.46 8.41 9 15.2-0.105 3.76-0.872 6.1-3.31 9.06-4.89 3.08-10.4 2.82-16 2-4.42-2.17-6.55-5.21-8.94-9.44-1.54-5.16-1.7-8.78 0.125-13.9 4.26-6.32 12.8-6.22 19.1-3z"/>
<path transform="translate(422 836)" d="m0 0c3.91 3.36 7.03 8.44 7.49 13.6 0.0245 1.05 0.049 2.11 0.0742 3.2 0.0374 1.05 0.0748 2.1 0.113 3.18-0.426 2.95-0.426 2.95-2.21 5.3-2.7 2.01-4.8 2.21-8.13 2.04-5.96-1.1-10.1-4.99-14.1-9.39-0.598-0.598-1.2-1.2-1.81-1.81-1.8-3.32-1.71-6.54-1.19-10.2 1.38-3.53 2.28-4.65 5.69-6.31 4.94-1.03 9.23-1.49 14.1 0.375z"/>
</svg>
